<svg xmlns="http://www.w3.org/2000/svg" xmlns:xlink="http://www.w3.org/1999/xlink" xmlns:inkscape="http://www.inkscape.org/namespaces/inkscape" version="1.1" width="2010.02" height="387.344" viewBox="0 0 2010.02 387.344">
<defs>
<clipPath id="clip_1">
<path transform="matrix(1,0,0,-1,0,387.344)" d="M0 387.344H2010.021V0H0Z"/>
</clipPath>
</defs>
<g inkscape:groupmode="layer" inkscape:label="Layer 1">
<g clip-path="url(#clip_1)">
<path transform="matrix(1,0,0,-1,297.2337,217.56099)" d="M0 0C5.249 26.752-12.403 48.505-39.154 48.505H-217.792L-217.8 48.459C-223.05 21.708-205.398-.045-178.647-.045H-.009Z" fill="#FF8000"/>
<path transform="matrix(1,0,0,-1,289.7013,257.4274)" d="M0 0 .009 .045H-178.69C-205.465 .045-231.248-21.684-236.307-48.459L-236.316-48.505H-57.691C-30.915-48.505-5.059-26.775 0 0" fill="#FF8000"/>
<path transform="matrix(1,0,0,-1,323.3096,80.58078)" d="M0 0 .009 .045H-178.617C-205.392 .045-231.248-21.684-236.307-48.459L-236.316-48.505H-57.617C-30.842-48.505-5.059-26.775 0 0" fill="#FF8000"/>
<path transform="matrix(1,0,0,-1,411.1904,80.75751)" d="M0 0C7.062 0 11.744-5.617 10.486-12.555L-25.868-213.694C-27.129-220.633-33.858-226.252-40.919-226.252H-83.611C-90.673-226.252-95.387-220.636-94.123-213.694L-57.772-12.555C-56.511-5.617-49.779 0-42.717 0Z" fill="#ffffff"/>
<path transform="matrix(1,0,0,-1,509.6302,181.0985)" d="M0 0-20.491-113.324C-21.748-120.259-28.481-125.879-35.542-125.879H-77.93C-84.992-125.879-89.71-120.266-88.445-113.324L-52.124 87.695C-50.863 94.634-44.13 100.25-37.069 100.25H16.979C20.733 100.25 24.038 98.627 25.961 95.775L89.952-17.969C91.572-20.371 95.242-19.708 95.753-16.947L114.652 87.695C115.91 94.634 122.642 100.25 129.704 100.25H172.092C179.15 100.25 183.871 94.634 182.639 87.663L146.314-113.353C145.053-120.291 138.321-125.911 131.263-125.911H84.452C80.669-125.911 77.396-124.259 75.469-121.433L5.801 1.022C4.174 3.424 .478 2.761 0 0" fill="#ffffff"/>
<path transform="matrix(1,0,0,-1,703.3094,306.9809)" d="M0 0C-7.062 0-11.78 5.617-10.515 12.556L-4.355 46.685C-3.094 53.624 3.638 59.24 10.7 59.24H152.681C156.914 59.24 160.972 62.607 161.725 66.784L163.643 77.477C164.393 81.655 161.573 85.018 157.334 85.018H55.218C22.046 85.018-.065 111.429 5.823 144.051L10.001 167.125C15.889 199.725 47.558 226.159 80.724 226.159H231.717C238.779 226.159 243.5 220.539 242.235 213.568L236.347 181.062C235.086 174.123 228.354 168.503 221.292 168.503H83.155C78.919 168.503 74.865 165.14 74.114 160.962L71.531 146.722C70.781 142.545 73.604 139.182 77.842 139.182H179.959C213.124 139.182 235.242 112.745 229.353 80.148L225.538 59.001C219.65 26.401 187.981-.032 154.815-.032H148.206V0Z" fill="#ffffff"/>
<path transform="matrix(1,0,0,-1,954.1603,247.88579)" d="M0 0 20.012 108.722C25.958 141.232 57.562 167.549 90.641 167.549H215.74C222.802 167.549 227.516 161.932 226.259 154.993L220.219 121.614C218.954 114.675 212.226 109.055 205.167 109.055H96.289C92.079 109.055 88.028 105.66 87.275 101.515L70.241 7.689C69.491 3.511 72.31 .152 76.546 .152H185.423C192.485 .152 197.2-5.468 195.942-12.41L189.782-46.565C188.524-53.508 181.792-59.124 174.733-59.124H49.333C16.135-59.124-5.946-32.632 0 0" fill="#ffffff"/>
<path transform="matrix(1,0,0,-1,1276.9043,228.5692)" d="M0 0H57.29L38.666 58.975ZM-120.117-62.697 10.903 135.825C17.57 144.811 26.075 147.033 37.641 147.482V147.272C37.705 147.298 37.734 147.298 37.793 147.298V147.485C40.978 147.608 44.373 147.576 48.098 147.518H49.812C51.131 147.485 52.275 147.543 53.659 147.518 58.406 147.518 63.599 147.398 69.581 147.398 69.581 147.398 80.847 147.728 85.021 135.832L149.765-62.697C150.844-66.001 150.124-69.995 147.902-73.209 145.652-76.426 142.224-78.408 138.858-78.408H87.246C83.669-78.408 80.724-76.18 79.643-72.64L73.875-53.921H-35.361L-39.778-60.712-48.279-72.731C-50.772-76.213-54.859-78.437-58.885-78.437H-113.385C-117.2-78.437-120.385-76.456-121.769-73.238-123.15-70.001-122.516-66.001-120.117-62.697" fill="#ffffff"/>
<path transform="matrix(1,0,0,-1,1628.8816,137.23659)" d="M0 0H-83.488C-84.898 0-86.253-1.141-86.495-2.525L-95.746-53.717C-95.989-55.127-95.058-56.24-93.648-56.24H-10.156C-3.877-56.24 2.102-51.225 3.243-45.065L9.374-11.207C10.483-5.018 6.279 .026 0 0M70.15-53.808C64.262-86.408 32.594-112.842-.572-112.842L-103.953-112.932C-105.362-112.932-106.714-114.074-106.957-115.454L-114.497-157.215C-115.758-164.153-122.49-169.773-129.546-169.773H-172.179C-179.241-169.773-183.959-164.157-182.694-157.215L-146.311 44.101C-145.05 51.04-138.315 56.66-131.26 56.66H30.042C63.211 56.66 85.322 30.249 79.434-2.373Z" fill="#ffffff"/>
<path transform="matrix(1,0,0,-1,1708.0891,294.4221)" d="M0 0 36.412 201.501C37.67 208.439 44.431 214.092 51.493 214.092H242.116C246.352 214.092 249.178 210.693 248.425 206.551L240.699 163.863C239.953 159.685 235.895 156.29 231.659 156.29H99.167C97.758 156.29 96.406 155.149 96.163 153.765L91.957 130.422C91.714 129.038 92.652 127.897 94.062 127.897H200.624C204.86 127.897 207.686 124.534 206.932 120.356L199.838 81.154C199.091 77.008 195.033 73.613 190.797 73.613H84.235C82.822 73.613 81.467 72.472 81.231 71.088L77.296 49.307C77.054 47.923 77.985 46.782 79.401 46.782H211.889C216.125 46.782 218.951 43.419 218.198 39.242L210.237-5.044C209.487-9.186 205.429-12.584 201.193-12.584H10.57C3.482-12.588-1.232-6.942 0 0" fill="#ffffff"/>
</g>
</g>
</svg>
