<svg xmlns="http://www.w3.org/2000/svg" viewBox="-4 -4 287 242" fill="currentColor" role="img" aria-label="InScape">
  <path transform="matrix(1,0,0,-1,247.8484,141.02519)" d="M0 0C5.249 26.752-12.403 48.505-39.154 48.505H-217.792L-217.8 48.459C-223.05 21.708-205.398-.045-178.647-.045H-.009Z"/>
  <path transform="matrix(1,0,0,-1,240.316,180.8916)" d="M0 0 .009 .045H-178.69C-205.465 .045-231.248-21.684-236.307-48.459L-236.316-48.505H-57.691C-30.915-48.505-5.059-26.775 0 0"/>
  <path transform="matrix(1,0,0,-1,273.92433,4.044983)" d="M0 0 .009 .045H-178.617C-205.392 .045-231.248-21.684-236.307-48.459L-236.316-48.505H-57.617C-30.842-48.505-5.059-26.775 0 0"/>
</svg>
