<svg xmlns="http://www.w3.org/2000/svg" width="64" height="64" viewBox="0 0 64 64">
  <rect width="64" height="64" rx="14" fill="#050505"/>
  <g transform="translate(13.5 16) scale(0.135)">
    <g transform="translate(-49 -76)" fill="#FF8000">
      <path transform="matrix(1,0,0,-1,247.8484,141.02519)" d="M0 0C5.249 26.752-12.403 48.505-39.154 48.505H-217.792L-217.8 48.459C-223.05 21.708-205.398-.045-178.647-.045H-.009Z"/><path transform="matrix(1,0,0,-1,240.316,180.8916)" d="M0 0 .009 .045H-178.69C-205.465 .045-231.248-21.684-236.307-48.459L-236.316-48.505H-57.691C-30.915-48.505-5.059-26.775 0 0"/><path transform="matrix(1,0,0,-1,273.92433,4.044983)" d="M0 0 .009 .045H-178.617C-205.392 .045-231.248-21.684-236.307-48.459L-236.316-48.505H-57.617C-30.842-48.505-5.059-26.775 0 0"/>
    </g>
  </g>
</svg>
